<svg version="1.0" xmlns="http://www.w3.org/2000/svg"
     width="768.000000pt" height="768.000000pt" viewBox="0 0 768.000000 768.000000"
     preserveAspectRatio="xMidYMid meet">
    <g transform="translate(0.000000,768.000000) scale(0.100000,-0.100000)"
       fill="#000000" stroke="none">
        <path d="M3575 7304 c-209 -16 -467 -61 -630 -109 -49 -15 -120 -36 -157 -46
-37 -10 -125 -42 -195 -70 -572 -228 -1063 -610 -1443 -1124 -179 -241 -345
-532 -442 -773 -126 -315 -210 -679 -239 -1039 -14 -183 -7 -535 15 -708 61
-470 208 -911 431 -1296 145 -249 239 -379 453 -621 221 -251 520 -491 835
-672 376 -215 854 -365 1299 -407 162 -15 507 -7 648 16 301 47 505 102 757
201 246 97 399 179 638 342 334 228 570 449 836 782 424 534 673 1181 730
1900 10 131 7 489 -5 560 -3 14 -12 73 -20 132 -34 235 -121 563 -203 768
-103 257 -294 588 -480 833 -205 270 -526 571 -816 766 -100 67 -308 191 -367
218 -25 12 -81 38 -125 58 -266 123 -588 218 -925 270 -101 16 -481 28 -595
19z m455 -189 c441 -47 766 -142 1149 -337 354 -180 725 -474 970 -768 365
-438 564 -824 701 -1357 67 -258 85 -425 85 -783 0 -269 -3 -322 -23 -450 -46
-292 -102 -497 -203 -742 -143 -347 -332 -649 -604 -967 -292 -338 -788 -696
-1213 -875 -195 -82 -529 -172 -762 -206 -123 -18 -471 -24 -623 -11 -528 44
-1021 228 -1487 554 -170 119 -268 203 -440 376 -273 275 -484 586 -653 961
-142 318 -210 559 -264 931 -22 153 -25 660 -4 834 35 308 104 579 211 830
199 468 399 765 755 1120 262 262 488 426 790 575 213 104 319 147 502 200
202 59 413 98 673 123 94 10 313 5 440 -8z"/>
        <path d="M3283 6675 c-93 -17 -184 -50 -254 -95 -50 -33 -118 -101 -139 -140
l-12 -23 31 22 c56 40 138 63 231 63 188 1 281 -61 280 -189 l-1 -48 -25 48
c-28 54 -48 60 -62 18 -15 -43 -64 -74 -207 -131 -300 -118 -517 -263 -757
-507 -187 -188 -263 -296 -395 -558 -41 -82 -76 -151 -77 -152 -1 -1 -29 11
-62 27 -236 114 -534 58 -728 -134 -82 -82 -157 -191 -199 -290 -95 -226 -113
-512 -45 -736 50 -163 168 -349 261 -409 21 -14 37 -32 37 -43 0 -36 58 -134
119 -200 166 -181 389 -255 595 -199 43 12 80 20 82 18 2 -2 -3 -38 -11 -81
-31 -164 -14 -313 55 -480 48 -114 55 -112 56 12 1 67 7 120 16 141 l14 35 13
-84 c28 -186 102 -365 198 -485 48 -58 86 -87 64 -49 -27 49 -50 114 -55 159
-6 43 -5 47 6 31 150 -221 392 -453 511 -488 33 -9 65 -36 147 -119 213 -215
494 -358 763 -388 302 -34 635 89 913 336 47 41 99 94 117 117 19 25 42 42 57
44 105 12 407 293 521 487 12 20 24 34 26 31 9 -8 -28 -140 -49 -173 -34 -56
3 -40 56 24 94 115 179 333 195 498 l7 80 19 -60 c12 -38 19 -92 19 -147 1
-47 4 -84 7 -82 14 8 61 121 85 202 33 114 41 258 21 370 -13 76 -13 83 2 76
102 -43 241 -55 338 -29 182 47 340 162 408 297 19 39 35 79 35 88 0 10 29 47
64 83 129 132 193 254 248 472 18 74 22 118 22 240 -1 130 -4 163 -27 249 -87
324 -302 555 -581 626 -44 11 -107 20 -140 20 -80 0 -217 -33 -282 -69 l-51
-28 -18 51 c-49 139 -183 370 -296 511 -220 273 -460 470 -736 601 -76 36
-183 87 -238 114 -123 58 -194 124 -244 224 -28 58 -35 66 -44 51 -9 -17 -4
-130 9 -190 6 -29 5 -29 -32 15 -101 118 -226 213 -345 261 -166 68 -374 92
-536 64z m-124 -942 c155 -42 352 -152 426 -236 35 -40 45 -47 45 -31 0 28
-57 92 -138 155 -90 71 -96 77 -37 44 140 -80 257 -188 327 -304 l51 -83 39
73 c80 153 160 231 323 315 101 52 104 52 25 -1 -69 -47 -103 -78 -151 -138
-56 -70 -48 -87 12 -27 111 111 299 211 461 244 87 18 213 22 203 6 -3 -5 -17
-10 -30 -10 -30 0 -153 -44 -169 -60 -8 -10 -6 -10 9 -3 71 35 294 40 400 9
l50 -15 -90 5 c-69 5 -98 3 -125 -9 l-35 -15 45 -1 c55 -1 228 -28 255 -40 11
-5 45 -19 75 -32 58 -25 115 -61 165 -104 22 -19 16 -17 -25 9 -48 31 -165 77
-269 106 -53 15 -24 -4 54 -34 134 -53 252 -131 355 -235 141 -142 206 -248
278 -451 84 -237 107 -424 92 -741 -10 -192 -25 -290 -64 -391 -50 -133 -142
-295 -195 -342 -28 -25 -27 -9 3 35 109 160 198 590 181 869 -28 433 -128 717
-322 908 -149 147 -286 221 -473 257 -161 32 -355 5 -518 -72 -64 -30 -82 -24
-20 8 23 12 38 24 31 26 -34 12 -249 -142 -337 -240 -24 -27 -26 -28 -15 -7 7
14 40 53 75 88 34 34 59 62 54 62 -4 0 -31 -16 -59 -35 -28 -19 -55 -35 -60
-35 -9 0 -94 -94 -149 -165 -30 -38 -18 -14 22 45 16 25 46 60 65 79 20 18 27
29 15 23 -62 -32 -136 -139 -178 -257 -6 -16 -13 -10 -40 42 -48 90 -83 133
-161 199 l-70 59 41 -50 c22 -28 49 -63 59 -80 13 -22 9 -19 -15 10 -95 113
-212 203 -325 251 -54 22 -42 9 23 -26 31 -17 81 -53 111 -80 53 -50 57 -70 4
-27 -85 69 -238 142 -372 178 -158 42 -397 17 -542 -56 -150 -76 -260 -175
-354 -318 -67 -104 -92 -158 -140 -308 -72 -226 -96 -461 -76 -734 17 -224 71
-436 152 -597 16 -32 27 -58 25 -58 -3 0 -23 19 -46 43 -86 91 -171 303 -206
512 -25 151 -26 470 -1 605 69 372 169 585 362 774 108 106 276 203 422 245
98 28 45 25 -67 -3 -114 -30 -156 -47 -229 -93 -37 -23 -49 -28 -37 -15 31 35
137 100 208 126 81 31 171 52 262 61 51 5 65 10 57 18 -13 13 -112 16 -181 5
l-45 -7 45 17 c50 17 294 24 365 9 l40 -9 -33 21 c-17 11 -53 26 -79 33 -38 9
-43 13 -27 19 25 10 125 1 193 -18z m1150 -376 c-2 -1 -13 -9 -24 -17 -19 -14
-19 -14 -6 3 7 9 18 17 24 17 6 0 8 -1 6 -3z m-1116 -193 c97 -21 258 -101
332 -164 77 -66 165 -177 206 -259 17 -36 48 -117 69 -179 l37 -113 25 98 c36
134 62 200 107 271 74 113 164 196 292 266 165 90 372 119 544 76 173 -43 311
-123 426 -248 109 -118 185 -270 222 -440 26 -123 28 -376 3 -524 -19 -118
-67 -269 -111 -358 -75 -148 -211 -295 -330 -356 l-50 -26 62 6 c71 8 164 -10
128 -25 -11 -4 -31 -8 -45 -8 -14 -1 -42 -6 -63 -12 l-38 -10 51 -61 c97 -116
90 -129 -16 -29 -54 51 -138 119 -186 151 l-88 57 48 7 c26 4 60 12 75 19 24
10 11 12 -90 12 -106 0 -125 3 -188 28 -88 36 -155 68 -161 79 -9 14 11 9 71
-17 78 -35 155 -42 246 -21 88 20 120 36 191 96 143 119 218 270 218 438 0 95
-19 182 -57 256 -17 34 -22 55 -16 65 14 22 -145 179 -227 224 -172 95 -376
100 -521 14 -70 -41 -157 -136 -179 -195 -23 -60 -14 -69 15 -15 28 54 131
154 195 190 110 63 231 79 353 47 66 -17 147 -55 189 -88 14 -11 37 -29 49
-38 13 -10 18 -18 12 -18 -7 0 -15 5 -19 11 -12 20 -132 69 -205 84 -253 53
-469 -50 -577 -275 -48 -100 -62 -163 -62 -269 0 -85 24 -219 46 -263 19 -38
19 -38 -22 -17 -71 36 -135 43 -242 29 -75 -10 -110 -10 -150 -1 -29 6 -70 11
-90 10 -33 -1 -29 -3 28 -18 36 -9 83 -27 104 -39 38 -23 46 -22 81 8 49 43
177 45 257 4 31 -16 118 -94 118 -106 0 -3 -27 5 -61 18 -34 14 -66 23 -73 20
-6 -2 -4 -5 4 -5 30 -2 156 -69 213 -114 44 -35 81 -53 155 -76 154 -48 265
-107 361 -194 123 -110 132 -139 22 -73 -68 41 -101 58 -101 53 0 -2 26 -20
59 -40 126 -78 230 -225 265 -377 28 -116 18 -271 -30 -459 -107 -426 -602
-875 -1054 -957 -185 -33 -420 -8 -596 65 -187 77 -335 181 -512 359 -206 208
-295 365 -341 606 -26 131 -28 305 -6 390 39 149 186 335 308 391 63 29 79 45
20 19 -21 -9 -47 -19 -58 -22 -11 -3 -39 -18 -62 -34 -68 -46 -50 -16 43 70
105 99 281 194 397 216 20 4 58 23 84 43 129 98 310 163 400 143 26 -6 63 -20
81 -31 40 -23 49 -24 31 -3 -20 24 -62 42 -115 49 -53 7 -160 -16 -247 -54
-27 -12 -51 -21 -54 -21 -2 0 11 19 31 42 41 47 101 85 166 105 l45 13 -44 -4
c-24 -3 -57 -14 -73 -26 -16 -12 -32 -19 -35 -17 -2 3 8 41 23 84 32 92 44
246 25 334 -17 76 -85 213 -133 265 -91 99 -254 174 -377 174 -112 0 -292 -63
-366 -129 l-30 -26 25 29 c39 45 143 114 212 143 85 34 210 42 294 18 115 -33
223 -111 288 -210 60 -90 80 -85 24 7 -66 111 -175 192 -298 224 -101 26 -247
6 -355 -48 -73 -37 -172 -117 -189 -153 -9 -19 -21 -35 -26 -35 -20 0 -40 -32
-34 -55 4 -15 -3 -38 -20 -67 -54 -92 -72 -261 -41 -378 40 -149 165 -306 295
-368 115 -56 248 -60 354 -13 27 12 51 20 53 17 7 -6 -69 -48 -127 -68 -142
-50 -193 -61 -248 -51 -29 5 -49 6 -44 1 11 -11 102 -27 121 -21 23 8 -59 -52
-100 -72 -37 -19 -96 -68 -192 -157 -34 -31 -63 -55 -65 -53 -6 6 17 43 58 90
22 25 40 50 40 55 0 13 -67 40 -99 40 -14 0 -33 4 -41 10 -26 16 15 23 107 17
l86 -5 -54 31 c-78 44 -237 207 -287 294 -111 191 -172 440 -172 704 0 258 88
487 258 669 199 215 483 312 745 254z m-1493 -319 c74 -19 150 -55 150 -71 0
-7 -5 -37 -11 -66 -7 -29 -20 -105 -29 -168 -10 -63 -18 -101 -19 -84 -2 65
-130 134 -218 118 -161 -29 -284 -207 -317 -459 l-7 -50 24 66 c71 204 260
310 415 233 54 -27 102 -78 102 -109 0 -9 -14 -33 -30 -52 -76 -86 -113 -222
-93 -340 15 -85 71 -199 127 -257 50 -51 47 -56 -43 -56 -70 0 -145 21 -195
55 -45 30 -47 20 -4 -24 70 -72 166 -121 235 -121 42 0 101 24 109 45 7 17 34
21 34 4 0 -9 43 -88 102 -187 19 -31 19 -32 1 -40 -10 -4 -38 -19 -63 -34 -73
-43 -153 -61 -240 -55 -178 12 -332 120 -426 297 -19 36 -63 106 -97 157 -64
91 -113 200 -144 316 -26 94 -23 326 6 432 57 215 198 379 383 445 65 23 173
25 248 5z m4485 0 c89 -24 173 -73 245 -145 217 -217 259 -629 98 -955 -22
-46 -58 -105 -79 -132 -21 -26 -57 -84 -81 -128 -101 -189 -296 -307 -481
-292 -45 4 -94 17 -150 41 -46 20 -88 36 -95 36 -19 0 -15 15 38 118 69 135
62 128 99 102 20 -16 49 -25 86 -28 47 -4 65 0 118 26 34 17 82 52 107 77 l45
46 -50 -25 c-53 -27 -163 -44 -210 -32 l-27 7 35 38 c77 86 131 225 131 342 0
87 -41 202 -96 263 -28 33 -38 51 -33 65 9 29 81 90 133 113 116 52 278 -37
357 -195 42 -83 48 -58 11 49 -62 183 -162 303 -278 335 -30 8 -51 7 -91 -5
-59 -17 -137 -78 -137 -106 0 -10 -4 -22 -10 -25 -6 -4 -10 21 -10 67 0 64
-21 219 -36 271 -4 13 6 22 43 38 108 47 221 59 318 34z m-1439 -489 c108 -29
202 -95 264 -186 107 -157 117 -318 31 -488 -85 -169 -264 -264 -437 -233
-182 34 -283 100 -349 231 -36 72 -26 73 18 2 58 -95 174 -162 276 -162 52 1
40 13 -24 25 -56 10 -173 73 -215 117 -52 53 -87 125 -99 200 -13 77 -9 108
27 206 25 68 81 156 68 107 -46 -172 -13 -374 75 -465 71 -73 138 -87 224 -46
94 45 144 121 166 254 14 83 4 162 -31 256 -17 44 -39 75 -86 122 -39 38 -59
64 -51 67 24 10 93 7 143 -7z m-1732 -2 c11 -4 -3 -23 -54 -72 -87 -85 -105
-135 -105 -292 0 -93 3 -112 26 -161 91 -193 267 -238 391 -101 59 66 82 139
82 262 -1 124 -21 190 -86 271 -53 68 -17 48 55 -31 32 -34 72 -93 94 -137 36
-72 38 -83 38 -167 0 -121 -31 -193 -119 -272 -62 -56 -163 -112 -226 -125
-33 -6 -32 -7 15 -8 93 -2 205 66 278 169 l17 25 -14 -31 c-30 -62 -113 -150
-174 -182 -139 -74 -274 -80 -406 -17 -249 118 -336 460 -173 682 54 72 103
115 168 149 68 34 157 52 193 38z m79 -45 c54 -42 59 -141 11 -199 -22 -25
-33 -30 -71 -30 -38 0 -50 5 -80 35 -32 32 -35 39 -30 77 6 48 30 84 77 116
41 27 60 28 93 1z m1438 -28 c24 -25 29 -37 29 -80 0 -42 -5 -56 -31 -86 -26
-29 -38 -35 -71 -35 -32 0 -47 7 -74 34 -40 40 -45 82 -13 132 44 71 109 86
160 35z"/>
        <path d="M4509 4749 c-148 -22 -281 -113 -342 -236 -21 -42 -42 -113 -33 -113
1 0 18 21 36 48 73 104 274 260 365 282 22 6 54 14 70 19 l30 9 -35 0 c-19 0
-60 -4 -91 -9z"/>
        <path d="M3108 4736 c97 -25 180 -76 280 -171 52 -49 103 -103 113 -120 18
-29 19 -29 19 -6 0 43 -62 141 -128 201 -78 72 -144 99 -256 105 l-81 5 53
-14z"/>
        <path d="M3778 3988 c23 -9 104 -9 118 0 7 4 -21 7 -62 7 -40 0 -66 -3 -56 -7z"/>
        <path d="M3761 3864 c43 -16 103 -16 153 -1 34 11 27 12 -75 13 -101 0 -109
-1 -78 -12z"/>
        <path d="M3770 3753 c53 -13 119 -10 163 6 12 5 -32 8 -98 8 l-120 -1 55 -13z"/>
        <path d="M3923 3567 c-34 -13 -78 -45 -70 -53 2 -2 26 8 53 23 42 24 60 28
126 28 43 0 70 3 60 7 -27 11 -134 8 -169 -5z"/>
        <path d="M4220 3243 c0 -6 6 -16 14 -22 18 -15 26 -69 15 -101 -9 -24 -8 -24
6 -6 24 31 19 89 -10 116 -14 13 -25 19 -25 13z"/>
        <path d="M3411 3214 c-22 -28 -27 -69 -11 -94 7 -11 10 -4 10 26 0 26 7 51 21
68 11 14 16 26 10 26 -5 0 -19 -12 -30 -26z"/>
        <path d="M4014 3167 c-56 -33 -107 -69 -113 -79 -15 -25 -24 -100 -13 -116 6
-9 17 -4 45 21 20 19 48 38 64 41 40 10 120 64 143 96 23 32 26 70 8 88 -18
18 -24 15 -134 -51z"/>
        <path d="M3517 3203 c-4 -3 -7 -20 -7 -36 0 -39 36 -70 154 -134 89 -47 97
-50 106 -33 30 56 -1 98 -116 159 -93 49 -123 59 -137 44z"/>
        <path d="M4673 2963 c9 -9 19 -14 23 -11 10 10 -6 28 -24 28 -15 0 -15 -1 1
-17z"/>
        <path d="M2965 2959 c-4 -6 -5 -13 -2 -16 7 -7 27 6 27 18 0 12 -17 12 -25 -2z"/>
        <path d="M3067 2843 c-4 -3 -7 -13 -7 -21 0 -12 3 -12 15 -2 8 7 15 16 15 21
0 11 -14 12 -23 2z"/>
        <path d="M4570 2841 c0 -14 18 -23 31 -15 8 4 7 9 -2 15 -18 11 -29 11 -29 0z"/>
        <path d="M4415 2770 c3 -5 13 -10 21 -10 8 0 14 5 14 10 0 6 -9 10 -21 10 -11
0 -17 -4 -14 -10z"/>
        <path d="M3215 2760 c3 -5 13 -10 21 -10 8 0 14 5 14 10 0 6 -9 10 -21 10 -11
0 -17 -4 -14 -10z"/>
        <path d="M2645 2519 c-29 -26 -35 -38 -34 -68 1 -35 2 -35 8 -7 9 44 24 41 45
-10 31 -75 323 -371 456 -461 98 -66 242 -128 395 -170 112 -30 396 -43 523
-24 223 35 422 118 572 238 179 143 400 390 400 447 0 9 4 16 9 16 11 0 21
-24 22 -53 1 -14 5 -8 11 16 8 30 7 42 -6 63 -22 33 -58 48 -93 39 -26 -6 -26
-8 -10 -19 33 -25 22 -72 -30 -124 -122 -121 -443 -237 -783 -283 -144 -20
-501 -17 -634 4 -136 22 -332 69 -428 103 -189 67 -368 194 -368 261 0 18 5
35 10 38 13 8 3 25 -15 25 -8 0 -30 -14 -50 -31z m1899 -424 c-4 -8 -1 -15 5
-15 23 0 9 -26 -33 -62 -23 -20 -83 -55 -132 -79 -49 -23 -96 -46 -104 -51
-43 -25 -92 -42 -155 -55 -103 -20 -296 -31 -410 -23 -101 8 -258 41 -305 64
-14 7 -78 39 -142 70 -130 64 -147 78 -128 102 11 13 10 16 -8 21 -25 6 -30
23 -6 23 9 0 55 -15 102 -32 87 -33 162 -92 162 -126 0 -13 2 -13 18 0 34 30
55 28 181 -9 115 -35 136 -38 241 -37 98 0 132 5 230 33 73 21 131 31 162 30
40 -2 51 1 63 18 19 28 70 59 170 105 91 42 97 44 89 23z"/>
    </g>
</svg>